<?xml version="1.0" standalone="no"?>
<!DOCTYPE svg PUBLIC "-//W3C//DTD SVG 20010904//EN"
 "http://www.w3.org/TR/2001/REC-SVG-20010904/DTD/svg10.dtd">
<svg version="1.0" xmlns="http://www.w3.org/2000/svg"
 width="1280.000000pt" height="886.000000pt" viewBox="0 0 1280.000000 886.000000"
 preserveAspectRatio="xMidYMid meet">
<metadata>
Created by potrace 1.15, written by Peter Selinger 2001-2017
</metadata>
<g transform="translate(0.000000,886.000000) scale(0.100000,-0.100000)"
fill="#000000" stroke="none">
<path d="M9696 8576 l-169 -246 -157 0 -157 0 -23 183 c-12 100 -26 202 -29
227 l-6 45 -2150 3 c-2278 3 -2309 3 -2595 -44 -1572 -258 -3159 -1662 -3541
-3133 -50 -194 -70 -339 -76 -549 -6 -212 4 -344 42 -537 180 -913 890 -1894
1850 -2557 581 -401 1192 -650 1825 -744 186 -27 834 -34 2770 -32 l1875 3 28
245 c15 135 30 260 33 278 l5 32 173 0 174 0 158 -242 c87 -134 161 -246 164
-251 4 -4 357 -3 785 3 651 9 783 14 807 26 169 88 305 802 372 1959 33 568
40 846 40 1670 0 1369 -50 2341 -159 3060 -75 494 -157 755 -250 803 -12 6
-253 14 -615 21 -327 6 -687 13 -800 16 l-205 6 -169 -245z"/>
</g>
</svg>
