<svg xmlns:inkscape="http://www.inkscape.org/namespaces/inkscape" xmlns:sodipodi="http://sodipodi.sourceforge.net/DTD/sodipodi-0.dtd" xmlns="http://www.w3.org/2000/svg" xmlns:svg="http://www.w3.org/2000/svg" viewBox="0 0 8.46667 10.583324375" version="1.1" x="0px" y="0px"><g transform="translate(-106.51243,-130.42345)"><path style="color:#000000;" d="m 28.580078,168.81445 c -1.75037,0 -3.175783,1.42346 -3.175781,3.17383 -2e-6,1.75037 1.425411,3.17578 3.175781,3.17578 1.75037,0 3.175783,-1.42541 3.175781,-3.17578 2e-6,-1.75037 -1.425411,-3.17383 -3.175781,-3.17383 z m 0,0.5293 c 1.464387,0 2.646486,1.18014 2.646484,2.64453 2e-6,1.46439 -1.182097,2.64649 -2.646484,2.64649 -1.464387,0 -2.646486,-1.1821 -2.646484,-2.64649 -2e-6,-1.46439 1.182097,-2.64453 2.646484,-2.64453 z" transform="rotate(-30)" fill="#000000" stroke-linecap="round" stroke-linejoin="round"/><g><path style="color:#000000;" d="m 110.75354,132.81466 v 0.66985 l 0.49943,-0.33493 z" fill="#000000" stroke-width="0.529167" stroke-linecap="round" stroke-linejoin="round"/><path style="color:#000000;" d="m 110.62891,132.58203 a 0.26460996,0.26460996 0 0 0 -0.14063,0.23242 v 0.66992 a 0.26460996,0.26460996 0 0 0 0.41211,0.22071 l 0.5,-0.33594 a 0.26460996,0.26460996 0 0 0 0,-0.43945 l -0.5,-0.33399 a 0.26460996,0.26460996 0 0 0 -0.27148,-0.0137 z" fill="#000000" stroke-linecap="round" stroke-linejoin="round"/></g><path style="color:#000000;" d="m 110.75391,132.88477 c -0.47028,-0.002 -0.92137,0.18308 -1.25391,0.51562 -0.68624,0.68624 -0.68624,1.8079 0,2.49414 0.68624,0.68624 1.80595,0.68624 2.49219,0 0.62293,-0.62293 0.68359,-1.60283 0.17383,-2.29297 a 0.264584,0.264584 0 0 0 -0.3711,-0.0547 0.264584,0.264584 0 0 0 -0.0547,0.36915 c 0.35654,0.48269 0.31828,1.16414 -0.12109,1.60351 -0.48402,0.48402 -1.26012,0.48402 -1.74414,0 -0.48402,-0.48402 -0.48402,-1.26012 0,-1.74414 0.23284,-0.23284 0.54765,-0.36285 0.87695,-0.36133 a 0.264584,0.264584 0 0 0 0.26563,-0.26367 0.264584,0.264584 0 0 0 -0.26367,-0.26562 z" fill="#000000" stroke-linecap="round" stroke-linejoin="round"/></g><text x="0" y="23.4666595" fill="#000000" font-size="5px" font-weight="bold" font-family="'Helvetica Neue', Helvetica, Arial-Unicode, Arial, Sans-serif">Created by Meko</text><text x="0" y="28.4666595" fill="#000000" font-size="5px" font-weight="bold" font-family="'Helvetica Neue', Helvetica, Arial-Unicode, Arial, Sans-serif">from the Noun Project</text></svg>