<svg xmlns="http://www.w3.org/2000/svg" xmlns:xlink="http://www.w3.org/1999/xlink" version="1.1" x="0px" y="0px" viewBox="0 0 100 125" style="enable-background:new 0 0 100 100;" xml:space="preserve"><g><path d="M48.3,93C24.1,93,4.4,73.3,4.4,49.1S24.1,5.2,48.3,5.2s43.9,19.7,43.9,43.9S72.5,93,48.3,93z M48.3,9   C26.2,9,8.2,27,8.2,49.1c0,22.1,18,40.1,40.1,40.1c22.1,0,40.1-18,40.1-40.1C88.5,27,70.5,9,48.3,9z"/></g><g><g><g><path d="M40,66.3h-2.6c-1.7,0-3.1-1.4-3.1-3.1V34.9c0-1.7,1.4-3.1,3.1-3.1H40c1.7,0,3.1,1.4,3.1,3.1v28.3     C43.1,64.9,41.7,66.3,40,66.3z"/></g></g><g><path d="M69.9,47.1L52.2,32.4c-0.8-0.7-1.9-0.8-2.8-0.4c-0.9,0.4-1.5,1.4-1.5,2.4v29.4c0,1,0.6,1.9,1.5,2.4    c0.4,0.2,0.7,0.2,1.1,0.2c0.6,0,1.2-0.2,1.7-0.6l17.7-14.7c0.6-0.5,0.9-1.2,0.9-2S70.5,47.6,69.9,47.1z"/></g></g><text x="0" y="115" fill="#000000" font-size="5px" font-weight="bold" font-family="'Helvetica Neue', Helvetica, Arial-Unicode, Arial, Sans-serif">Created by  Thays Malcher</text><text x="0" y="120" fill="#000000" font-size="5px" font-weight="bold" font-family="'Helvetica Neue', Helvetica, Arial-Unicode, Arial, Sans-serif">from the Noun Project</text></svg>