<svg xmlns="http://www.w3.org/2000/svg" xmlns:xlink="http://www.w3.org/1999/xlink" version="1.1" x="0px" y="0px" viewBox="0 0 50 62.5" enable-background="new 0 0 50 50" xml:space="preserve"><g><g><path fill="#000000" d="M25.345,41.312c-8.388-0.274-15.896-1.79-21.111-3.988c1.661,6.666,11.409,11.199,22.754,10.305    c8.373-0.662,15.42-4.107,18.777-8.617C40.484,40.673,33.27,41.57,25.345,41.312z"/></g><path fill="#000000" d="M38.504,42.731l1.645,5.008c0,0,2.064-3.797,2.09-6.947C38.504,42.731,38.504,42.731,38.504,42.731z"/><polygon fill="#000000" points="37.059,4.091 37.059,43.846 36.016,43.846  "/><path fill="#000000" d="M36.283,2.259c0,0-13.594,9.99-22.984,33.234c0,0,12.421-6.277,22.386,0L36.283,2.259z"/><g><path fill="#000000" d="M36.754,39.894l-18.786-4.4l-1.819,4.617c2.434,0.317,4.999,0.529,7.654,0.616    C29.418,40.91,32.285,40.733,36.754,39.894z"/></g><path fill="#000000" d="M19.291,39.377c-1.15,0.048-2.018-0.198-2.018-0.198l1.016-2.855c0,0,1.375,0.369,1.925,0.525   C19.991,37.853,19.778,38.507,19.291,39.377z"/></g><text x="0" y="65" fill="#000000" font-size="5px" font-weight="bold" font-family="'Helvetica Neue', Helvetica, Arial-Unicode, Arial, Sans-serif">Created by Mister Pixel</text><text x="0" y="70" fill="#000000" font-size="5px" font-weight="bold" font-family="'Helvetica Neue', Helvetica, Arial-Unicode, Arial, Sans-serif">from the Noun Project</text></svg>