<svg xmlns="http://www.w3.org/2000/svg" xmlns:xlink="http://www.w3.org/1999/xlink" version="1.2" baseProfile="tiny" x="0px" y="0px" viewBox="0 0 100 125" xml:space="preserve"><path d="M7.5,75h35c1.011,0,1.923-0.609,2.31-1.543c0.387-0.934,0.173-2.009-0.542-2.724l-7.574-7.574   c4.245-9.403,14.36-14.808,24.649-12.962c9.407,1.688,16.78,9.149,18.349,18.565C80.294,72.376,83.415,75,87.113,75   c2.176,0,4.246-0.94,5.679-2.581c1.437-1.644,2.092-3.828,1.799-5.992c-2.301-16.997-13.812-31.025-30.04-36.612   c-17.323-5.965-36.44-0.841-48.47,12.731l-6.814-6.814c-0.715-0.715-1.792-0.93-2.724-0.542C5.609,35.577,5,36.489,5,37.5v35   C5,73.881,6.119,75,7.5,75z M10,43.536l4.482,4.482c0.506,0.506,1.206,0.775,1.92,0.728c0.715-0.043,1.376-0.392,1.817-0.956   c10.543-13.5,28.509-18.82,44.703-13.246c14.431,4.968,24.667,17.442,26.713,32.555c0.101,0.745-0.115,1.466-0.609,2.032   c-0.49,0.561-1.17,0.87-1.914,0.87c-1.244,0-2.291-0.867-2.49-2.061c-1.915-11.496-10.916-20.604-22.397-22.665   c-1.648-0.296-3.291-0.439-4.916-0.439c-11.387,0-21.824,7.045-25.904,18.045c-0.34,0.917-0.115,1.946,0.576,2.637L36.464,70H10   V43.536z"/><text x="0" y="115" fill="#000000" font-size="5px" font-weight="bold" font-family="'Helvetica Neue', Helvetica, Arial-Unicode, Arial, Sans-serif">Created by Arthur Shlain</text><text x="0" y="120" fill="#000000" font-size="5px" font-weight="bold" font-family="'Helvetica Neue', Helvetica, Arial-Unicode, Arial, Sans-serif">from the Noun Project</text></svg>